<svg xmlns="http://www.w3.org/2000/svg" width="32" height="32" version="1"><g color="#000" transform="matrix(.99298 0 0 .99621 .024 .12)"><rect stroke-linejoin="round" style="isolation:auto;mix-blend-mode:normal" width="17.97" height="27.397" x="10.897" y="-2.463" fill="#5fd38d" stroke="#373748" stroke-linecap="round" stroke-width="1.005" overflow="visible" rx="0" ry="0" transform="rotate(15)"/><rect stroke-linejoin="round" style="isolation:auto;mix-blend-mode:normal" width="17.97" height="27.397" x="3.479" y="4.161" fill="#f2f2f2" stroke="#373748" stroke-linecap="round" stroke-width="1.005" overflow="visible" rx="0" ry="0"/><path fill="#373748" d="M19.067 30.232a.536.536 0 0 1-.542-.53c0-.095.027-.189.077-.271-.025 0-.05.009-.077.009a.536.536 0 0 1-.54-.53c0-.293.241-.53.54-.53a.555.555 0 0 1 .383.155c.025.023.047.05.066.078l.015.025c-.052-.42-.093-.902-.247-1.053h.65c-.155.15-.195.634-.248 1.053l.015-.025a.527.527 0 0 1 .238-.192.556.556 0 0 1 .211-.042c.299 0 .541.238.541.53 0 .293-.242.53-.541.53-.026 0-.051 0-.077-.008.05.082.077.176.077.271 0 .293-.242.53-.541.53z" overflow="visible" style="isolation:auto;mix-blend-mode:normal"/><path fill="#373748" stroke="#373748" stroke-linecap="round" stroke-linejoin="round" stroke-width="1.005" d="M12.464 13.443c-.997 0-1.805.791-1.805 1.768 0 .318.09.63.257.903a1.783 1.783 0 0 0-.257-.02c-.996.001-1.804.792-1.804 1.768s.808 1.768 1.804 1.768a1.81 1.81 0 0 0 1.496-.78c.019-.026.034-.053.05-.08-.174 1.397-.31 3.006-.824 3.51h2.165c-.515-.504-.65-2.113-.825-3.51l.05.08a1.787 1.787 0 0 0 .795.641c.216.09.453.139.702.139.997 0 1.805-.792 1.805-1.768s-.808-1.767-1.805-1.767c-.086 0-.171.009-.256.02a1.74 1.74 0 0 0 .256-.904c0-.977-.808-1.768-1.804-1.768z" overflow="visible" style="isolation:auto;mix-blend-mode:normal"/><path style="isolation:auto;mix-blend-mode:normal" fill="#373748" d="M5.766 5.487a.536.536 0 0 0-.542.53c0 .096.027.19.077.271-.025 0-.05-.008-.077-.008a.536.536 0 0 0-.54.53c0 .293.241.53.54.53a.556.556 0 0 0 .383-.155.527.527 0 0 0 .066-.079l.015-.025c-.052.42-.093.903-.247 1.054h.65c-.155-.151-.195-.634-.248-1.054l.015.025a.526.526 0 0 0 .238.193.556.556 0 0 0 .211.041.536.536 0 0 0 .541-.53.536.536 0 0 0-.54-.53c-.027 0-.052 0-.078.008a.524.524 0 0 0 .077-.27.536.536 0 0 0-.541-.531z" overflow="visible"/></g></svg>